<?xml version="1.0" encoding="UTF-8" standalone="no"?>
<!-- Created with Inkscape (http://www.inkscape.org/) -->

<svg
   xmlns:dc="http://purl.org/dc/elements/1.1/"
   xmlns:cc="http://creativecommons.org/ns#"
   xmlns:rdf="http://www.w3.org/1999/02/22-rdf-syntax-ns#"
   xmlns:svg="http://www.w3.org/2000/svg"
   xmlns="http://www.w3.org/2000/svg"
   xmlns:xlink="http://www.w3.org/1999/xlink"
   xmlns:sodipodi="http://sodipodi.sourceforge.net/DTD/sodipodi-0.dtd"
   xmlns:inkscape="http://www.inkscape.org/namespaces/inkscape"
   width="2048mm"
   height="480mm"
   viewBox="0 0 2048 480"
   version="1.1"
   id="svg8"
   inkscape:version="0.92.4 (5da689c313, 2019-01-14)"
   sodipodi:docname="arboles.svg">
  <defs
     id="defs2" />
  <sodipodi:namedview
     id="base"
     pagecolor="#ffffff"
     bordercolor="#666666"
     borderopacity="1.0"
     inkscape:pageopacity="0.0"
     inkscape:pageshadow="2"
     inkscape:zoom="0.0875"
     inkscape:cx="2644.2413"
     inkscape:cy="1409.8699"
     inkscape:document-units="mm"
     inkscape:current-layer="layer1"
     showgrid="false"
     height="480mm"
     inkscape:window-width="1366"
     inkscape:window-height="705"
     inkscape:window-x="-8"
     inkscape:window-y="-8"
     inkscape:window-maximized="1" />
  <metadata
     id="metadata5">
    <rdf:RDF>
      <cc:Work
         rdf:about="">
        <dc:format>image/svg+xml</dc:format>
        <dc:type
           rdf:resource="http://purl.org/dc/dcmitype/StillImage" />
        <dc:title></dc:title>
      </cc:Work>
    </rdf:RDF>
  </metadata>
  <g
     inkscape:label="árboles"
     inkscape:groupmode="layer"
     id="layer1"
     transform="translate(0,183)"
     style="display:inline">
    <rect
       style="fill:#784421;stroke:none;stroke-width:0.23685077"
       id="rect4564"
       width="24.588459"
       height="90.589073"
       x="163.56381"
       y="206.95497" />
    <path
       sodipodi:type="star"
       style="fill:#00ff00;stroke:none;stroke-width:0.18606035"
       id="path4548"
       sodipodi:sides="8"
       sodipodi:cx="219.01962"
       sodipodi:cy="144.04294"
       sodipodi:r1="65.181313"
       sodipodi:r2="58.663174"
       sodipodi:arg1="0.91261438"
       sodipodi:arg2="1.3053135"
       inkscape:flatsided="false"
       inkscape:rounded="0.5"
       inkscape:randomized="0.1"
       d="m 261.91919,194.44963 c -10.86983,6.18824 -10.13867,4.68344 -22.19487,7.35565 -12.05621,2.67221 -12.84716,12.81298 -24.65579,11.20954 -11.80863,-1.60344 -9.57823,-10.53398 -20.30753,-15.74814 -10.7293,-5.21416 -16.04612,-7.75343 -25.48234,-16.65845 -9.43623,-8.90502 -7.64362,-12.37614 -9.29787,-25.10816 -1.65425,-12.73203 -4.99742,-13.06958 -4.21536,-25.5136 0.78207,-12.44402 4.26034,-4.69623 11.14606,-15.56887 6.88572,-10.87262 -0.72175,-17.167948 8.28799,-25.70223 9.00975,-8.534283 12.12611,3.168739 24.84287,0.995709 12.71676,-2.173029 15.2373,-6.684314 27.16046,-6.627778 11.92317,0.05654 5.75689,6.589215 17.78965,11.483638 12.03275,4.894423 16.48019,-4.332487 25.49576,4.748367 9.01557,9.080854 2.38053,17.050314 6.64967,28.349634 4.26915,11.29931 12.4469,16.18628 12.719,28.18604 0.2721,11.99975 -20.30726,11.00634 -24.87189,22.27081 -4.56463,11.26446 7.80402,10.13961 -3.06581,16.32784 z"
       transform="translate(-33.993752,24.63982)"
       inkscape:transform-center-x="-3.7050254"
       inkscape:transform-center-y="4.8340288" />
    <use
       x="0"
       y="0"
       xlink:href="#rect4564"
       id="use4566"
       transform="matrix(1,0,0,1.1571428,245.6419,-47.215178)"
       width="100%"
       height="100%" />
    <path
       sodipodi:type="star"
       style="fill:#00ff00;stroke:none;stroke-width:0.22647265"
       id="path4550"
       sodipodi:sides="8"
       sodipodi:cx="345.90314"
       sodipodi:cy="240.65431"
       sodipodi:r1="50.620152"
       sodipodi:r2="45.558136"
       sodipodi:arg1="0.86217005"
       sodipodi:arg2="1.2548691"
       inkscape:flatsided="false"
       inkscape:rounded="0.5"
       inkscape:randomized="0.1"
       d="m 376.35249,274.5843 c -8.02978,5.01506 -2.84585,9.82879 -11.67228,12.97982 -8.82643,3.15103 -9.52895,5.49078 -18.70711,3.96217 -9.17817,-1.5286 -12.69597,-1.10726 -20.72533,-5.89782 -8.02936,-4.79056 -10.3219,-4.62049 -15.80245,-12.97916 -5.48056,-8.35867 -5.69868,-12.41879 -7.69565,-21.49243 -1.99697,-9.07364 -5.66377,-0.25344 -3.81543,-10.2212 1.84834,-9.96775 3.73107,-11.87294 9.09699,-19.93942 5.36593,-8.06649 -5.78859,-17.034 2.29414,-22.22207 8.08272,-5.18806 16.54488,0.15174 25.80832,-2.0613 9.26343,-2.21304 4.93477,-4.39227 14.6951,-4.75667 9.76033,-0.3644 11.11639,1.31094 19.63377,6.6761 8.51738,5.36516 9.01578,2.71683 14.29179,11.16633 5.276,8.4495 6.30277,2.95266 10.30813,12.15657 4.00535,9.20392 -2.06709,11.66014 -2.30685,21.38611 -0.23976,9.72596 -1.8804,12.50071 -5.04158,21.66227 -3.16119,9.16157 -2.33178,4.56563 -10.36156,9.5807 z"
       transform="translate(79.553139,-85.799149)"
       inkscape:transform-center-x="2.3047749"
       inkscape:transform-center-y="-1.7126226" />
    <use
       height="100%"
       width="100%"
       transform="matrix(1,0,0,1.1571428,546.39062,-45.921049)"
       id="use4568"
       xlink:href="#rect4564"
       y="0"
       x="0" />
    <path
       sodipodi:type="star"
       style="fill:#00ff00;stroke:none;stroke-width:0.22647265"
       id="path4554"
       sodipodi:sides="8"
       sodipodi:cx="646.05194"
       sodipodi:cy="277.25781"
       sodipodi:r1="55.662609"
       sodipodi:r2="50.096352"
       sodipodi:arg1="0.47835243"
       sodipodi:arg2="0.87105151"
       inkscape:flatsided="false"
       inkscape:rounded="0.5"
       inkscape:randomized="0.1"
       d="m 693.16777,303.04279 c -6.17392,9.26348 -3.15435,5.14356 -10.40634,13.04558 -7.25199,7.90202 -7.31313,11.74494 -17.31675,15.44289 -10.00361,3.69794 -7.38496,-5.07852 -18.53068,-6.06442 -11.14572,-0.98589 -12.31846,9.66362 -22.80471,5.91418 -10.48626,-3.74944 -10.01326,-11.37477 -16.94855,-19.9934 -6.9353,-8.61863 -12.92977,-11.02 -15.03902,-21.73964 -2.10925,-10.71963 7.90727,-10.68011 9.45404,-21.63129 1.54677,-10.95117 -8.03386,-5.07523 -3.64506,-14.7341 4.3888,-9.65888 2.90112,-11.43782 11.01794,-18.07802 8.11683,-6.64021 6.60472,-6.33855 17.12197,-9.52707 10.51725,-3.18852 18.48651,7.3608 29.67466,7.02614 11.18816,-0.33467 9.68418,-10.10671 18.9453,-3.90293 9.26111,6.20377 4.93474,12.1009 12.53688,19.11976 7.60214,7.01885 14.64491,4.703 17.18939,15.4815 2.54448,10.7785 -3.81357,11.16936 -3.93348,21.61345 -0.1199,10.4441 -1.14167,8.76389 -7.31559,18.02737 z"
       transform="translate(74.779555,-113.25178)"
       inkscape:transform-center-x="-1.3409861"
       inkscape:transform-center-y="0.81473007" />
    <use
       x="0"
       y="0"
       xlink:href="#use4568"
       id="use4570"
       transform="translate(276.9938,3.0238095)"
       width="100%"
       height="100%" />
    <path
       sodipodi:type="star"
       style="fill:#00ff00;stroke:none;stroke-width:0.22647265"
       id="path4556"
       sodipodi:sides="8"
       sodipodi:cx="955.35162"
       sodipodi:cy="226.01292"
       sodipodi:r1="66.619385"
       sodipodi:r2="59.957455"
       sodipodi:arg1="0.36520145"
       sodipodi:arg2="0.75790053"
       inkscape:flatsided="false"
       inkscape:rounded="0.5"
       inkscape:randomized="0.1"
       d="m 1021.7362,243.47817 c -2.9719,12.06321 -21.0772,9.37491 -29.15252,19.82465 -8.07536,10.44974 -3.6387,22.04477 -15.92835,26.24072 -12.28964,4.19595 -2.53632,3.15309 -14.76477,1.65789 -12.22845,-1.4952 -18.34524,6.59056 -30.69033,2.19634 -12.34509,-4.39421 -1.67467,-7.75803 -10.48813,-17.7997 -8.81346,-10.04168 -18.61741,-12.53598 -24.78812,-23.88595 -6.17072,-11.34997 0.63887,-11.81533 -1.53148,-24.13974 -2.17035,-12.32441 -7.80117,-9.96055 -4.00008,-21.60802 3.8011,-11.64747 13.66326,-9.39861 22.54547,-18.32802 8.88221,-8.92941 0.88898,-18.83578 13.20821,-22.60348 12.31924,-3.7677 12.69633,5.05286 25.515,5.83212 12.81867,0.77925 21.1947,-12.83121 32.3398,-7.92909 11.14509,4.90212 8.68538,7.77492 18.0331,15.69684 9.3476,7.92192 13.6586,16.24566 20.1555,26.61735 6.4968,10.37169 -14.1505,8.02722 -11.9981,20.19822 2.1524,12.17099 14.5167,5.96666 11.5448,18.02987 z"
       transform="translate(43.348777,-82.775339)"
       inkscape:transform-center-x="-1.7010793"
       inkscape:transform-center-y="0.60422756" />
    <use
       x="0"
       y="0"
       xlink:href="#use4570"
       id="use4572"
       transform="translate(372.84704,-0.43555062)"
       width="100%"
       height="100%" />
    <path
       sodipodi:type="star"
       style="fill:#00ff00;stroke:none;stroke-width:0.22647265"
       id="path4558"
       sodipodi:sides="8"
       sodipodi:cx="1158.5011"
       sodipodi:cy="258.95605"
       sodipodi:r1="61.385948"
       sodipodi:r2="55.247353"
       sodipodi:arg1="0.46364761"
       sodipodi:arg2="0.85634669"
       inkscape:flatsided="false"
       inkscape:rounded="0.5"
       inkscape:randomized="0.1"
       d="m 1219.4793,288.17794 c -6.5861,9.56038 -14.0493,8.62234 -24.3625,15.09458 -10.3131,6.47224 -9.9227,4.54745 -20.3874,8.57965 -10.4647,4.0322 -13.4237,4.87545 -25.161,5.03384 -11.7374,0.1584 -5.6226,-0.40967 -15.2497,-6.28303 -9.6271,-5.87335 -6.2979,-2.65051 -14.454,-10.41931 -8.1561,-7.7688 -20.5361,-15.68591 -24.7438,-27.28478 -4.2078,-11.59886 2.9936,-1.26921 3.2031,-13.02105 0.2095,-11.75184 2.7912,-12.95378 7.0172,-24.5288 4.2261,-11.57503 13.5347,-7.5793 21.2068,-16.34917 7.6722,-8.76987 -4.0372,-12.32378 7.4484,-14.24635 11.4856,-1.92256 12.8773,-4.43266 25.1611,-5.03384 12.2837,-0.60118 16.6331,-3.06525 28.2013,0.73314 11.5682,3.79839 5.7337,17.60673 13.7793,26.887 8.0456,9.28027 7.0489,5.35633 12.4793,16.06819 5.4305,10.71187 2.6471,8.8139 0.6144,19.94234 -2.0327,11.12843 11.8336,15.2672 5.2475,24.82759 z"
       transform="translate(210.85098,-113.25178)"
       inkscape:transform-center-x="0.76641485"
       inkscape:transform-center-y="-2.4753929" />
    <use
       x="0"
       y="0"
       xlink:href="#use4572"
       id="use4574"
       transform="translate(245.8846,-2.5882589)"
       width="100%"
       height="100%" />
    <path
       sodipodi:type="star"
       style="fill:#00ff00;stroke:none;stroke-width:0.22647265"
       id="path4560"
       sodipodi:sides="8"
       sodipodi:cx="1465.9705"
       sodipodi:cy="200.39046"
       sodipodi:r1="68.086464"
       sodipodi:r2="61.277817"
       sodipodi:arg1="0.63274884"
       sodipodi:arg2="1.0254479"
       inkscape:flatsided="false"
       inkscape:rounded="0.5"
       inkscape:randomized="0.1"
       d="m 1514.3403,243.5005 c -8.5031,9.77292 -0.083,2.7534 -10.0957,10.21466 -10.0129,7.46126 -14.8565,19.14719 -28.1259,19.88375 -13.2693,0.73657 -8.7346,-8.06716 -21.176,-10.69531 -12.4414,-2.62815 -11.4773,-1.7908 -23.5596,-8.12117 -12.0823,-6.33037 -13.2836,-15.43343 -20.8094,-26.49372 -7.5258,-11.06029 -5.0865,-7.17875 -8.1889,-20.05978 -3.1025,-12.88103 1.9571,-9.09919 3.6475,-21.66117 1.6905,-12.56198 1.2492,-16.66771 7.4048,-27.99305 6.1556,-11.32535 7.2111,-10.8995 19.2164,-16.16711 12.0053,-5.26761 15.5002,-1.29539 28.1399,-5.09009 12.6397,-3.7947 9.0391,-5.7651 21.176,-2.92198 12.1369,2.84313 8.3941,-1.55856 20.0593,5.22187 11.6652,6.78043 3.8555,25.26181 11.4265,35.67826 7.571,10.41646 20.1053,7.63957 20.3381,21.1066 0.2328,13.46702 -1.534,7.50432 -3.6616,20.48479 -2.1277,12.98047 -7.2884,16.84053 -15.7914,26.61345 z"
       transform="translate(144.96467,-67.497388)"
       inkscape:transform-center-x="1.8859694"
       inkscape:transform-center-y="0.48875312" />
    <use
       x="0"
       y="0"
       xlink:href="#use4574"
       id="use4576"
       transform="translate(244.39638,2.8470846)"
       width="100%"
       height="100%" />
    <path
       sodipodi:type="star"
       style="fill:#00ff00;stroke:none;stroke-width:0.22647265"
       id="path4562"
       sodipodi:sides="8"
       sodipodi:cx="1652.6484"
       sodipodi:cy="273.59747"
       sodipodi:r1="44.680279"
       sodipodi:r2="40.21225"
       sodipodi:arg1="0.61072596"
       sodipodi:arg2="1.003425"
       inkscape:flatsided="false"
       inkscape:rounded="0.5"
       inkscape:randomized="0.1"
       d="m 1693.5439,302.44833 c -5.1467,6.9656 -9.0307,1.83382 -16.1264,7.19086 -7.0957,5.35704 -4.8121,8.55036 -13.242,10.62852 -8.4299,2.07815 -8.5815,-7.41478 -16.6742,-8.32019 -8.0927,-0.90541 -14.0774,4.70155 -21.2413,-0.0567 -7.164,-4.75828 -6.2541,-11.61588 -10.7639,-19.17503 -4.5099,-7.55916 -8.3288,-1.52135 -10.7603,-9.38067 -2.4315,-7.85931 11.2168,-6.87547 11.8402,-15.13916 0.6234,-8.2637 -4.2482,-9.80652 0.3309,-17.25196 4.5791,-7.44543 11.1379,-6.49712 17.9414,-11.3917 6.8034,-4.89458 4.3019,-9.29668 13.2421,-9.63907 8.9403,-0.3424 8.5492,5.77608 16.6741,7.33074 8.1248,1.55466 5.4843,-5.68778 12.3051,-0.93271 6.8208,4.75507 7.9951,4.68632 12.972,11.31902 4.9769,6.63271 4.2329,12.98297 6.7372,21.43751 2.5042,8.45455 0.9171,3.16979 -1.089,11.92777 -2.0062,8.75799 3.0007,14.48719 -2.1459,21.4528 z"
       transform="translate(210.85098,-113.25178)"
       inkscape:transform-center-x="-0.39509246"
       inkscape:transform-center-y="4.4546332" />
  </g>
</svg>
