<?xml version="1.0" encoding="UTF-8" standalone="no"?>
<!-- Created with Inkscape (http://www.inkscape.org/) -->

<svg
   xmlns:dc="http://purl.org/dc/elements/1.1/"
   xmlns:cc="http://creativecommons.org/ns#"
   xmlns:rdf="http://www.w3.org/1999/02/22-rdf-syntax-ns#"
   xmlns:svg="http://www.w3.org/2000/svg"
   xmlns="http://www.w3.org/2000/svg"
   xmlns:sodipodi="http://sodipodi.sourceforge.net/DTD/sodipodi-0.dtd"
   xmlns:inkscape="http://www.inkscape.org/namespaces/inkscape"
   width="2048mm"
   height="480mm"
   viewBox="0 0 2048 480"
   version="1.1"
   id="svg8"
   inkscape:version="0.92.4 (5da689c313, 2019-01-14)"
   sodipodi:docname="cielo.svg">
  <defs
     id="defs2" />
  <sodipodi:namedview
     id="base"
     pagecolor="#ffffff"
     bordercolor="#666666"
     borderopacity="1.0"
     inkscape:pageopacity="0.0"
     inkscape:pageshadow="2"
     inkscape:zoom="0.0875"
     inkscape:cx="3884.2413"
     inkscape:cy="1409.8699"
     inkscape:document-units="mm"
     inkscape:current-layer="layer4"
     showgrid="false"
     height="480mm"
     inkscape:window-width="1366"
     inkscape:window-height="705"
     inkscape:window-x="-8"
     inkscape:window-y="-8"
     inkscape:window-maximized="1" />
  <metadata
     id="metadata5">
    <rdf:RDF>
      <cc:Work
         rdf:about="">
        <dc:format>image/svg+xml</dc:format>
        <dc:type
           rdf:resource="http://purl.org/dc/dcmitype/StillImage" />
        <dc:title></dc:title>
      </cc:Work>
    </rdf:RDF>
  </metadata>
  <g
     inkscape:groupmode="layer"
     id="layer3"
     inkscape:label="nubes">
    <rect
       style="fill:#5fbcd3;stroke:none;stroke-width:0.26458332"
       id="rect4615"
       width="2059.2141"
       height="486.83331"
       x="-3.0238097"
       y="-0.78571653" />
  </g>
  <g
     inkscape:groupmode="layer"
     id="layer4"
     inkscape:label="nubes 1">
    <path
       sodipodi:type="star"
       style="fill:#d5f6ff;stroke:none;stroke-width:0.26458332"
       id="path4620"
       sodipodi:sides="8"
       sodipodi:cx="51.404758"
       sodipodi:cy="47.595238"
       sodipodi:r1="50.052952"
       sodipodi:r2="45.047657"
       sodipodi:arg1="0.43662716"
       sodipodi:arg2="0.82932624"
       inkscape:flatsided="false"
       inkscape:rounded="0.5"
       inkscape:randomized="0.1"
       d="m 94.15554,70.592287 c -3.911285,9.133618 -9.479097,3.732022 -15.621929,11.110471 -6.142831,7.378449 -4.541545,7.561386 -14.226361,9.736278 -9.684817,2.174892 -2.748544,-0.0047 -12.652487,-0.395634 C 41.750819,90.652496 42.22945,96.465657 33.985106,91.59843 25.740761,86.731204 25.997657,88.707167 20.072892,81.156956 14.148127,73.606745 12.936828,68.440739 8.8972592,59.813781 4.8576901,51.186823 4.8671035,53.35394 6.0545683,43.726507 7.2420332,34.099075 3.0555725,36.433908 5.6686259,27.555381 8.2816792,18.676853 14.532671,23.249384 21.290555,16.444909 28.048439,9.6404338 26.797636,-0.16945581 35.516917,-3.3019592 c 8.71928,-3.1325033 13.53397,8.7436413 22.663077,10.4062242 9.129106,1.6625829 1.406761,-9.519346 9.692468,-4.1525842 8.285707,5.3667617 5.802877,6.6147319 11.878812,14.0390302 6.075935,7.424298 17.051697,2.596535 21.186226,11.332585 4.13452,8.73605 -6.249973,16.651827 -7.167902,26.097864 -0.917929,9.446037 4.297228,7.037508 0.385942,16.171127 z"
       inkscape:transform-center-x="0.92345781"
       inkscape:transform-center-y="-0.088211356"
       transform="matrix(1,0,0,0.51031708,0,65.771383)" />
    <path
       sodipodi:type="star"
       style="fill:#d5f6ff;stroke:none;stroke-width:0.26458332"
       id="path4622"
       sodipodi:sides="8"
       sodipodi:cx="226.78572"
       sodipodi:cy="56.666664"
       sodipodi:r1="73.634567"
       sodipodi:r2="66.271118"
       sodipodi:arg1="0.33473684"
       sodipodi:arg2="0.72743592"
       inkscape:flatsided="false"
       inkscape:rounded="0.5"
       inkscape:randomized="0.1"
       d="m 301.7432,83.327372 c -6.24441,12.997894 -15.2167,4.06374 -24.63949,15.092413 -9.42279,11.028675 -8.50297,13.247595 -21.15023,18.233585 -12.64725,4.98599 -15.2619,3.21053 -29.58073,6.04659 -14.31883,2.83605 -11.90493,11.3412 -26.06657,8.07694 -14.16164,-3.26426 -3.25584,-13.09404 -13.03199,-23.01648 -9.77614,-9.922431 -15.89905,-8.501926 -21.72377,-21.288998 -5.82473,-12.787071 -8.31618,-10.843396 -9.79446,-24.551642 -1.47828,-13.708246 -6.02543,-22.84836 0.18121,-34.985305 6.20664,-12.136946 13.9708,-6.815919 21.8906,-18.89804 7.91979,-12.0821209 7.80285,-9.3100299 20.08371,-16.8467029 12.28086,-7.5366731 4.23114,5.5303873 17.84523,3.3878412 13.61408,-2.1425462 29.07643,-7.8205143 41.60232,-1.6379501 12.52589,6.18256389 1.28903,2.6528966 12.49597,10.023836 11.20695,7.3709398 21.6317,12.1294298 27.62322,25.4257778 5.99152,13.296349 -6.18606,6.992417 -4.94785,21.648776 1.2382,14.656358 15.45723,20.291465 9.21283,33.289359 z"
       inkscape:transform-center-x="-1.6257497"
       inkscape:transform-center-y="1.0106086"
       transform="matrix(1,0,0,0.51031708,18.142857,123.22376)" />
    <path
       sodipodi:type="star"
       style="fill:#d5f6ff;stroke:none;stroke-width:0.26458332"
       id="path4624"
       sodipodi:sides="8"
       sodipodi:cx="523.11908"
       sodipodi:cy="117.14286"
       sodipodi:r1="127.57466"
       sodipodi:r2="114.8172"
       sodipodi:arg1="0.5485494"
       sodipodi:arg2="0.94124848"
       inkscape:flatsided="false"
       inkscape:rounded="0.5"
       inkscape:randomized="0.1"
       d="m 634.64921,178.65977 c -14.16506,18.78364 -19.25449,16.61098 -40.92632,29.59141 -21.67182,12.98043 -25.5677,32.62287 -50.20556,37.62107 -24.63786,4.99819 -10.59358,1.40885 -33.86909,-3.72338 -23.27551,-5.13223 -32.31427,-11.62101 -54.80887,-22.1682 -22.4946,-10.54719 -10.48733,-27.72289 -27.31147,-45.21121 -16.82413,-17.48832 -24.8497,-6.56582 -29.65242,-29.45373 -4.80271,-22.88792 15.43613,-27.14221 18.21614,-51.149271 2.78002,-24.007065 -4.90807,-28.149052 6.22786,-48.990025 11.13593,-20.840972 23.30896,-4.220291 42.27555,-20.018848 18.96659,-15.7985566 9.07494,-19.8232496 34.35542,-22.0601289 25.28049,-2.23687925 25.03539,-9.2685728 49.71965,-9.0124258 24.68426,0.2561471 7.22268,13.9163054 29.29435,24.9933377 22.07166,11.077031 14.39075,20.495071 27.3369,41.765129 12.94615,21.270059 50.13437,-8.8054 53.7656,15.472791 3.63123,24.278191 -18.20068,27.382131 -18.21614,51.149261 -0.0154,23.76714 7.96347,32.41058 -6.2016,51.19422 z"
       inkscape:transform-center-x="5.8526141"
       inkscape:transform-center-y="1.8360932"
       transform="matrix(1,0,0,0.51031708,21.166667,47.628526)" />
    <path
       sodipodi:type="star"
       style="fill:#d5f6ff;stroke:none;stroke-width:0.26458332"
       id="path4626"
       sodipodi:sides="8"
       sodipodi:cx="882.95233"
       sodipodi:cy="86.904755"
       sodipodi:r1="111.88095"
       sodipodi:r2="100.69286"
       sodipodi:arg1="0.33029735"
       sodipodi:arg2="0.72299644"
       inkscape:flatsided="false"
       inkscape:rounded="0.5"
       inkscape:randomized="0.1"
       d="m 978.71875,129.59129 c -4.21637,22.01215 1.92494,2.13457 -13.71271,17.52342 -15.63765,15.38884 -12.86606,29.98299 -32.56967,38.61758 -19.7036,8.6346 -28.15356,6.09056 -48.92039,8.39456 -20.76683,2.30399 -8.63387,-1.65705 -29.40499,-8.48434 -20.77112,-6.82729 -32.30801,-5.43998 -46.60896,-21.09209 -14.30095,-15.6521 -26.33427,-7.2998 -34.8719,-27.13651 -8.53764,-19.83672 18.35951,-27.86301 17.67921,-50.080341 -0.6803,-22.217333 -22.04919,-23.736514 -13.06603,-43.365502 8.98315,-19.628989 13.93659,-12.817399 26.01525,-29.607429 12.07865,-16.7900293 8.91411,-23.9434512 28.83928,-30.733604 19.92516,-6.790153 19.74569,-2.853892 41.16302,-4.351984 21.41732,-1.498092 31.19177,-9.607484 50.5749,-1.843687 19.38312,7.763797 17.81883,12.611185 32.38165,27.5350011 14.56281,14.9238159 11.9088,9.7736939 18.24716,29.4230959 6.33835,19.649403 0.98546,19.511463 3.49069,39.752316 2.50522,20.240853 4.97987,33.437374 0.76349,55.449514 z"
       inkscape:transform-center-x="1.2793821"
       inkscape:transform-center-y="-0.62097293"
       transform="matrix(1,0,0,0.51031708,-39.309524,180.67614)" />
    <path
       sodipodi:type="star"
       style="fill:#d5f6ff;stroke:none;stroke-width:0.26458332"
       id="path4628"
       sodipodi:sides="8"
       sodipodi:cx="1306.2858"
       sodipodi:cy="56.666664"
       sodipodi:r1="81.418556"
       sodipodi:r2="73.276703"
       sodipodi:arg1="0.26299473"
       sodipodi:arg2="0.65569381"
       inkscape:flatsided="false"
       inkscape:rounded="0.5"
       inkscape:randomized="0.1"
       d="m 1381.7497,82.604501 c -5.756,13.945069 -15.1179,8.323932 -25.334,19.931229 -10.216,11.6073 12.9945,20.58762 -1.6211,26.82757 -14.6157,6.23996 -21.884,1.49414 -36.7409,3.8277 -14.8569,2.33356 -13.6593,10.7637 -29.5273,7.37239 -15.868,-3.39131 -16.393,-9.23794 -28.7954,-18.92969 -12.4024,-9.69174 -7.6997,-19.2764 -16.0452,-31.760311 -8.3456,-12.483909 -0.6543,-2.11817 -2.7099,-17.336649 -2.0556,-15.21848 -16.1975,-24.184812 -13.5513,-39.006345 2.6461,-14.821532 13.2278,-8.052249 22.9044,-21.044013 9.6766,-12.99176511 4.6584,-27.19636 17.62,-34.45812 12.9616,-7.261759 20.0127,1.822636 35.846,1.730322 15.8334,-0.09231 2.1671,1.361255 16.5682,6.269095 14.4012,4.9078397 17.9937,6.6465868 28.7951,17.1266758 10.8015,10.4800892 24.7931,-9.4904644 30.7938,5.1997816 6.0008,14.6902456 -2.1305,26.3363046 1.2059,41.4922686 3.3363,15.155965 6.3477,18.813028 0.5917,32.758096 z"
       inkscape:transform-center-x="-2.7124018"
       inkscape:transform-center-y="-0.35112191"
       transform="matrix(1,0,0,0.51031708,12.095238,105.08091)" />
    <path
       sodipodi:type="star"
       style="fill:#d5f6ff;stroke:none;stroke-width:0.26458332"
       id="path4630"
       sodipodi:sides="8"
       sodipodi:cx="1693.3333"
       sodipodi:cy="108.07142"
       sodipodi:r1="143.43188"
       sodipodi:r2="129.08868"
       sodipodi:arg1="0.32175055"
       sodipodi:arg2="0.71444964"
       inkscape:flatsided="false"
       inkscape:rounded="0.5"
       inkscape:randomized="0.1"
       d="m 1821.5605,162.96354 c -5.3402,25.88558 -11.9602,3.55964 -31.3061,23.63947 -19.3459,20.07982 -2.5272,45.09123 -27.2226,58.37375 -24.6953,13.28252 -21.7652,-17.62271 -50.0552,-15.81918 -28.2901,1.80352 -46.627,7.01949 -73.5398,2.17965 -26.9129,-4.83983 -13.8196,4.22076 -32.9976,-15.32578 -19.1779,-19.54654 -31.6345,-7.22869 -45.8304,-31.18687 -14.196,-23.95818 8.0337,-32.75862 8.908,-61.18813 0.8743,-28.4295 -9.1651,-24.920092 -4.3374,-52.155598 4.8277,-27.235508 22.1664,-34.401549 38.2075,-57.182426 16.0412,-22.7808763 0.9116,-20.9359523 27.193,-32.165542 26.2815,-11.22959 28.1005,-11.93528 54.0495,-16.7237 25.949,-4.788419 43.3116,-6.846805 67.5263,2.982089 24.2148,9.828895 10.528,18.237086 29.6919,37.7721573 19.1639,19.5350697 20.7158,11.8374717 32.7921,35.3984007 12.0763,23.56093 7.4435,21.333595 7.9379,47.972661 0.4943,26.639068 4.3231,47.543458 -1.0171,73.429048 z"
       inkscape:transform-center-x="-4.9237924"
       inkscape:transform-center-y="-3.5337193"
       transform="matrix(1,0,0,0.51031708,-9.0714286,47.628526)" />
    <path
       sodipodi:type="star"
       style="fill:#d5f6ff;stroke:none;stroke-width:0.26458332"
       id="path4632"
       sodipodi:sides="8"
       sodipodi:cx="1950.3572"
       sodipodi:cy="198.78572"
       sodipodi:r1="107.24937"
       sodipodi:r2="96.524437"
       sodipodi:arg1="0.37527082"
       sodipodi:arg2="0.7679699"
       inkscape:flatsided="false"
       inkscape:rounded="0.5"
       inkscape:randomized="0.1"
       d="m 2047.3754,228.87183 c -9.5991,17.13918 -21.5879,27.50958 -33.7427,43.32258 -12.1549,15.813 -0.3173,22.77854 -17.9505,32.86466 -17.6332,10.08613 -27.4301,-18.4664 -48.5243,-18.84174 -21.0943,-0.37535 -7.6037,12.91604 -27.2781,5.20073 -19.6744,-7.71532 -11.7519,-20.73947 -26.827,-33.82498 -15.0751,-13.08552 -31.1749,10.10751 -40.7814,-7.42978 -9.6065,-17.53729 7.206,-30.09639 5.0008,-51.10605 -2.2051,-21.00966 -4.8053,-29.63867 2.832,-48.0198 7.6373,-18.38114 7.8523,-2.44879 21.5963,-18.48734 13.7439,-16.03854 -0.5257,-23.41479 17.9504,-32.86466 18.4761,-9.449872 27.4972,-2.543197 48.524,-4.983162 21.0268,-2.439964 28.499,4.022201 47.5502,9.245722 19.0512,5.22352 11.1912,8.99867 28.0051,21.75356 16.8139,12.75489 25.5669,-0.17386 31.1251,19.67092 5.5582,19.84477 -11.6328,21.94564 -13.5937,42.70576 -1.961,20.76012 15.7129,23.6544 6.1138,40.79358 z"
       inkscape:transform-center-x="-1.7501418"
       inkscape:transform-center-y="0.96833164"
       transform="matrix(1,0,0,0.51031708,3.0238095,123.22376)" />
    <path
       sodipodi:type="star"
       style="fill:#d5f6ff;stroke:none;stroke-width:0.26458332"
       id="path4634"
       sodipodi:sides="8"
       sodipodi:cx="1034.1428"
       sodipodi:cy="102.0238"
       sodipodi:r1="103.34176"
       sodipodi:r2="93.007584"
       sodipodi:arg1="0.35877067"
       sodipodi:arg2="0.75146975"
       inkscape:flatsided="false"
       inkscape:rounded="0.5"
       inkscape:randomized="0.1"
       d="m 1124.7791,131.43812 c -8.8703,17.68964 -1.8356,14.86749 -16.7125,27.95602 -14.877,13.08853 -13.1472,24.88975 -30.134,33.14005 -16.9868,8.2503 -21.5286,1.1233 -41.2925,2.91253 -19.7639,1.78923 -17.7588,6.18249 -36.80801,2.00842 -19.04923,-4.17407 -9.53198,-17.18015 -22.95693,-31.78069 -13.42496,-14.60054 -26.98614,-2.99134 -33.22961,-22.51289 -6.24346,-19.52155 -0.46418,-26.43059 -1.14054,-46.122446 -0.67635,-19.691857 -8.62269,-9.263465 -1.57653,-28.310702 7.04615,-19.047237 13.27526,-11.154495 24.88186,-28.119553 11.60659,-16.965059 4.58888,-32.0376886 20.82953,-42.013267 16.24063,-9.975578 32.75383,16.264825 51.71153,17.788938 18.9576,1.524112 17.1013,-18.1028121 35.6938,-11.5481714 18.5924,6.5546404 -1.8562,27.5691744 13.6518,38.9988254 15.5079,11.429651 26.6855,3.082463 35.458,20.92404 8.7725,17.841577 -1.3732,10.811567 1.1622,29.528093 2.5353,18.716523 9.3323,19.461173 0.4619,37.150803 z"
       inkscape:transform-center-x="0.59038418"
       inkscape:transform-center-y="-1.2584971"
       transform="matrix(1,0,0,0.51031708,-6.047619,56.699954)" />
  </g>
</svg>
