<?xml version="1.0" encoding="UTF-8" standalone="no"?>
<!-- Created with Inkscape (http://www.inkscape.org/) -->

<svg
   xmlns:dc="http://purl.org/dc/elements/1.1/"
   xmlns:cc="http://creativecommons.org/ns#"
   xmlns:rdf="http://www.w3.org/1999/02/22-rdf-syntax-ns#"
   xmlns:svg="http://www.w3.org/2000/svg"
   xmlns="http://www.w3.org/2000/svg"
   xmlns:xlink="http://www.w3.org/1999/xlink"
   xmlns:sodipodi="http://sodipodi.sourceforge.net/DTD/sodipodi-0.dtd"
   xmlns:inkscape="http://www.inkscape.org/namespaces/inkscape"
   width="2048mm"
   height="480mm"
   viewBox="0 0 2048 480"
   version="1.1"
   id="svg8"
   inkscape:version="0.92.4 (5da689c313, 2019-01-14)"
   sodipodi:docname="paralaje.svg">
  <defs
     id="defs2">
    <linearGradient
       inkscape:collect="always"
       id="linearGradient4608">
      <stop
         style="stop-color:#d38d5f;stop-opacity:1;"
         offset="0"
         id="stop4604" />
      <stop
         id="stop4612"
         offset="0.44671971"
         style="stop-color:#c87137;stop-opacity:1" />
      <stop
         style="stop-color:#e9c6af;stop-opacity:1"
         offset="1"
         id="stop4606" />
    </linearGradient>
    <linearGradient
       inkscape:collect="always"
       xlink:href="#linearGradient4608"
       id="linearGradient4610"
       x1="18.232878"
       y1="370.95251"
       x2="2146.2319"
       y2="310.83712"
       gradientUnits="userSpaceOnUse" />
  </defs>
  <sodipodi:namedview
     id="base"
     pagecolor="#ffffff"
     bordercolor="#666666"
     borderopacity="1.0"
     inkscape:pageopacity="0.0"
     inkscape:pageshadow="2"
     inkscape:zoom="0.0875"
     inkscape:cx="4135.6699"
     inkscape:cy="1409.8699"
     inkscape:document-units="mm"
     inkscape:current-layer="layer2"
     showgrid="false"
     height="480mm"
     inkscape:window-width="1366"
     inkscape:window-height="705"
     inkscape:window-x="-8"
     inkscape:window-y="-8"
     inkscape:window-maximized="1" />
  <metadata
     id="metadata5">
    <rdf:RDF>
      <cc:Work
         rdf:about="">
        <dc:format>image/svg+xml</dc:format>
        <dc:type
           rdf:resource="http://purl.org/dc/dcmitype/StillImage" />
        <dc:title></dc:title>
      </cc:Work>
    </rdf:RDF>
  </metadata>
  <g
     inkscape:groupmode="layer"
     id="layer3"
     inkscape:label="nubes">
    <rect
       style="fill:#5fbcd3;stroke:none;stroke-width:0.26458332"
       id="rect4615"
       width="2059.2141"
       height="486.83331"
       x="-3.0238097"
       y="-0.78571653" />
  </g>
  <g
     inkscape:groupmode="layer"
     id="layer4"
     inkscape:label="nubes 1">
    <path
       sodipodi:type="star"
       style="fill:#d5f6ff;stroke:none;stroke-width:0.26458332"
       id="path4620"
       sodipodi:sides="8"
       sodipodi:cx="51.404758"
       sodipodi:cy="47.595238"
       sodipodi:r1="50.052952"
       sodipodi:r2="45.047657"
       sodipodi:arg1="0.43662716"
       sodipodi:arg2="0.82932624"
       inkscape:flatsided="false"
       inkscape:rounded="0.5"
       inkscape:randomized="0.1"
       d="m 94.15554,70.592287 c -3.911285,9.133618 -9.479097,3.732022 -15.621929,11.110471 -6.142831,7.378449 -4.541545,7.561386 -14.226361,9.736278 -9.684817,2.174892 -2.748544,-0.0047 -12.652487,-0.395634 C 41.750819,90.652496 42.22945,96.465657 33.985106,91.59843 25.740761,86.731204 25.997657,88.707167 20.072892,81.156956 14.148127,73.606745 12.936828,68.440739 8.8972592,59.813781 4.8576901,51.186823 4.8671035,53.35394 6.0545683,43.726507 7.2420332,34.099075 3.0555725,36.433908 5.6686259,27.555381 8.2816792,18.676853 14.532671,23.249384 21.290555,16.444909 28.048439,9.6404338 26.797636,-0.16945581 35.516917,-3.3019592 c 8.71928,-3.1325033 13.53397,8.7436413 22.663077,10.4062242 9.129106,1.6625829 1.406761,-9.519346 9.692468,-4.1525842 8.285707,5.3667617 5.802877,6.6147319 11.878812,14.0390302 6.075935,7.424298 17.051697,2.596535 21.186226,11.332585 4.13452,8.73605 -6.249973,16.651827 -7.167902,26.097864 -0.917929,9.446037 4.297228,7.037508 0.385942,16.171127 z"
       inkscape:transform-center-x="0.92345781"
       inkscape:transform-center-y="-0.088211356"
       transform="matrix(1,0,0,0.51031708,0,65.771383)" />
    <path
       sodipodi:type="star"
       style="fill:#d5f6ff;stroke:none;stroke-width:0.26458332"
       id="path4622"
       sodipodi:sides="8"
       sodipodi:cx="226.78572"
       sodipodi:cy="56.666664"
       sodipodi:r1="73.634567"
       sodipodi:r2="66.271118"
       sodipodi:arg1="0.33473684"
       sodipodi:arg2="0.72743592"
       inkscape:flatsided="false"
       inkscape:rounded="0.5"
       inkscape:randomized="0.1"
       d="m 301.7432,83.327372 c -6.24441,12.997894 -15.2167,4.06374 -24.63949,15.092413 -9.42279,11.028675 -8.50297,13.247595 -21.15023,18.233585 -12.64725,4.98599 -15.2619,3.21053 -29.58073,6.04659 -14.31883,2.83605 -11.90493,11.3412 -26.06657,8.07694 -14.16164,-3.26426 -3.25584,-13.09404 -13.03199,-23.01648 -9.77614,-9.922431 -15.89905,-8.501926 -21.72377,-21.288998 -5.82473,-12.787071 -8.31618,-10.843396 -9.79446,-24.551642 -1.47828,-13.708246 -6.02543,-22.84836 0.18121,-34.985305 6.20664,-12.136946 13.9708,-6.815919 21.8906,-18.89804 7.91979,-12.0821209 7.80285,-9.3100299 20.08371,-16.8467029 12.28086,-7.5366731 4.23114,5.5303873 17.84523,3.3878412 13.61408,-2.1425462 29.07643,-7.8205143 41.60232,-1.6379501 12.52589,6.18256389 1.28903,2.6528966 12.49597,10.023836 11.20695,7.3709398 21.6317,12.1294298 27.62322,25.4257778 5.99152,13.296349 -6.18606,6.992417 -4.94785,21.648776 1.2382,14.656358 15.45723,20.291465 9.21283,33.289359 z"
       inkscape:transform-center-x="-1.6257497"
       inkscape:transform-center-y="1.0106086"
       transform="matrix(1,0,0,0.51031708,18.142857,123.22376)" />
    <path
       sodipodi:type="star"
       style="fill:#d5f6ff;stroke:none;stroke-width:0.26458332"
       id="path4624"
       sodipodi:sides="8"
       sodipodi:cx="523.11908"
       sodipodi:cy="117.14286"
       sodipodi:r1="127.57466"
       sodipodi:r2="114.8172"
       sodipodi:arg1="0.5485494"
       sodipodi:arg2="0.94124848"
       inkscape:flatsided="false"
       inkscape:rounded="0.5"
       inkscape:randomized="0.1"
       d="m 634.64921,178.65977 c -14.16506,18.78364 -19.25449,16.61098 -40.92632,29.59141 -21.67182,12.98043 -25.5677,32.62287 -50.20556,37.62107 -24.63786,4.99819 -10.59358,1.40885 -33.86909,-3.72338 -23.27551,-5.13223 -32.31427,-11.62101 -54.80887,-22.1682 -22.4946,-10.54719 -10.48733,-27.72289 -27.31147,-45.21121 -16.82413,-17.48832 -24.8497,-6.56582 -29.65242,-29.45373 -4.80271,-22.88792 15.43613,-27.14221 18.21614,-51.149271 2.78002,-24.007065 -4.90807,-28.149052 6.22786,-48.990025 11.13593,-20.840972 23.30896,-4.220291 42.27555,-20.018848 18.96659,-15.7985566 9.07494,-19.8232496 34.35542,-22.0601289 25.28049,-2.23687925 25.03539,-9.2685728 49.71965,-9.0124258 24.68426,0.2561471 7.22268,13.9163054 29.29435,24.9933377 22.07166,11.077031 14.39075,20.495071 27.3369,41.765129 12.94615,21.270059 50.13437,-8.8054 53.7656,15.472791 3.63123,24.278191 -18.20068,27.382131 -18.21614,51.149261 -0.0154,23.76714 7.96347,32.41058 -6.2016,51.19422 z"
       inkscape:transform-center-x="5.8526141"
       inkscape:transform-center-y="1.8360932"
       transform="matrix(1,0,0,0.51031708,21.166667,47.628526)" />
    <path
       sodipodi:type="star"
       style="fill:#d5f6ff;stroke:none;stroke-width:0.26458332"
       id="path4626"
       sodipodi:sides="8"
       sodipodi:cx="882.95233"
       sodipodi:cy="86.904755"
       sodipodi:r1="111.88095"
       sodipodi:r2="100.69286"
       sodipodi:arg1="0.33029735"
       sodipodi:arg2="0.72299644"
       inkscape:flatsided="false"
       inkscape:rounded="0.5"
       inkscape:randomized="0.1"
       d="m 978.71875,129.59129 c -4.21637,22.01215 1.92494,2.13457 -13.71271,17.52342 -15.63765,15.38884 -12.86606,29.98299 -32.56967,38.61758 -19.7036,8.6346 -28.15356,6.09056 -48.92039,8.39456 -20.76683,2.30399 -8.63387,-1.65705 -29.40499,-8.48434 -20.77112,-6.82729 -32.30801,-5.43998 -46.60896,-21.09209 -14.30095,-15.6521 -26.33427,-7.2998 -34.8719,-27.13651 -8.53764,-19.83672 18.35951,-27.86301 17.67921,-50.080341 -0.6803,-22.217333 -22.04919,-23.736514 -13.06603,-43.365502 8.98315,-19.628989 13.93659,-12.817399 26.01525,-29.607429 12.07865,-16.7900293 8.91411,-23.9434512 28.83928,-30.733604 19.92516,-6.790153 19.74569,-2.853892 41.16302,-4.351984 21.41732,-1.498092 31.19177,-9.607484 50.5749,-1.843687 19.38312,7.763797 17.81883,12.611185 32.38165,27.5350011 14.56281,14.9238159 11.9088,9.7736939 18.24716,29.4230959 6.33835,19.649403 0.98546,19.511463 3.49069,39.752316 2.50522,20.240853 4.97987,33.437374 0.76349,55.449514 z"
       inkscape:transform-center-x="1.2793821"
       inkscape:transform-center-y="-0.62097293"
       transform="matrix(1,0,0,0.51031708,-39.309524,180.67614)" />
    <path
       sodipodi:type="star"
       style="fill:#d5f6ff;stroke:none;stroke-width:0.26458332"
       id="path4628"
       sodipodi:sides="8"
       sodipodi:cx="1306.2858"
       sodipodi:cy="56.666664"
       sodipodi:r1="81.418556"
       sodipodi:r2="73.276703"
       sodipodi:arg1="0.26299473"
       sodipodi:arg2="0.65569381"
       inkscape:flatsided="false"
       inkscape:rounded="0.5"
       inkscape:randomized="0.1"
       d="m 1381.7497,82.604501 c -5.756,13.945069 -15.1179,8.323932 -25.334,19.931229 -10.216,11.6073 12.9945,20.58762 -1.6211,26.82757 -14.6157,6.23996 -21.884,1.49414 -36.7409,3.8277 -14.8569,2.33356 -13.6593,10.7637 -29.5273,7.37239 -15.868,-3.39131 -16.393,-9.23794 -28.7954,-18.92969 -12.4024,-9.69174 -7.6997,-19.2764 -16.0452,-31.760311 -8.3456,-12.483909 -0.6543,-2.11817 -2.7099,-17.336649 -2.0556,-15.21848 -16.1975,-24.184812 -13.5513,-39.006345 2.6461,-14.821532 13.2278,-8.052249 22.9044,-21.044013 9.6766,-12.99176511 4.6584,-27.19636 17.62,-34.45812 12.9616,-7.261759 20.0127,1.822636 35.846,1.730322 15.8334,-0.09231 2.1671,1.361255 16.5682,6.269095 14.4012,4.9078397 17.9937,6.6465868 28.7951,17.1266758 10.8015,10.4800892 24.7931,-9.4904644 30.7938,5.1997816 6.0008,14.6902456 -2.1305,26.3363046 1.2059,41.4922686 3.3363,15.155965 6.3477,18.813028 0.5917,32.758096 z"
       inkscape:transform-center-x="-2.7124018"
       inkscape:transform-center-y="-0.35112191"
       transform="matrix(1,0,0,0.51031708,12.095238,105.08091)" />
    <path
       sodipodi:type="star"
       style="fill:#d5f6ff;stroke:none;stroke-width:0.26458332"
       id="path4630"
       sodipodi:sides="8"
       sodipodi:cx="1693.3333"
       sodipodi:cy="108.07142"
       sodipodi:r1="143.43188"
       sodipodi:r2="129.08868"
       sodipodi:arg1="0.32175055"
       sodipodi:arg2="0.71444964"
       inkscape:flatsided="false"
       inkscape:rounded="0.5"
       inkscape:randomized="0.1"
       d="m 1821.5605,162.96354 c -5.3402,25.88558 -11.9602,3.55964 -31.3061,23.63947 -19.3459,20.07982 -2.5272,45.09123 -27.2226,58.37375 -24.6953,13.28252 -21.7652,-17.62271 -50.0552,-15.81918 -28.2901,1.80352 -46.627,7.01949 -73.5398,2.17965 -26.9129,-4.83983 -13.8196,4.22076 -32.9976,-15.32578 -19.1779,-19.54654 -31.6345,-7.22869 -45.8304,-31.18687 -14.196,-23.95818 8.0337,-32.75862 8.908,-61.18813 0.8743,-28.4295 -9.1651,-24.920092 -4.3374,-52.155598 4.8277,-27.235508 22.1664,-34.401549 38.2075,-57.182426 16.0412,-22.7808763 0.9116,-20.9359523 27.193,-32.165542 26.2815,-11.22959 28.1005,-11.93528 54.0495,-16.7237 25.949,-4.788419 43.3116,-6.846805 67.5263,2.982089 24.2148,9.828895 10.528,18.237086 29.6919,37.7721573 19.1639,19.5350697 20.7158,11.8374717 32.7921,35.3984007 12.0763,23.56093 7.4435,21.333595 7.9379,47.972661 0.4943,26.639068 4.3231,47.543458 -1.0171,73.429048 z"
       inkscape:transform-center-x="-4.9237924"
       inkscape:transform-center-y="-3.5337193"
       transform="matrix(1,0,0,0.51031708,-9.0714286,47.628526)" />
    <path
       sodipodi:type="star"
       style="fill:#d5f6ff;stroke:none;stroke-width:0.26458332"
       id="path4632"
       sodipodi:sides="8"
       sodipodi:cx="1950.3572"
       sodipodi:cy="198.78572"
       sodipodi:r1="107.24937"
       sodipodi:r2="96.524437"
       sodipodi:arg1="0.37527082"
       sodipodi:arg2="0.7679699"
       inkscape:flatsided="false"
       inkscape:rounded="0.5"
       inkscape:randomized="0.1"
       d="m 2047.3754,228.87183 c -9.5991,17.13918 -21.5879,27.50958 -33.7427,43.32258 -12.1549,15.813 -0.3173,22.77854 -17.9505,32.86466 -17.6332,10.08613 -27.4301,-18.4664 -48.5243,-18.84174 -21.0943,-0.37535 -7.6037,12.91604 -27.2781,5.20073 -19.6744,-7.71532 -11.7519,-20.73947 -26.827,-33.82498 -15.0751,-13.08552 -31.1749,10.10751 -40.7814,-7.42978 -9.6065,-17.53729 7.206,-30.09639 5.0008,-51.10605 -2.2051,-21.00966 -4.8053,-29.63867 2.832,-48.0198 7.6373,-18.38114 7.8523,-2.44879 21.5963,-18.48734 13.7439,-16.03854 -0.5257,-23.41479 17.9504,-32.86466 18.4761,-9.449872 27.4972,-2.543197 48.524,-4.983162 21.0268,-2.439964 28.499,4.022201 47.5502,9.245722 19.0512,5.22352 11.1912,8.99867 28.0051,21.75356 16.8139,12.75489 25.5669,-0.17386 31.1251,19.67092 5.5582,19.84477 -11.6328,21.94564 -13.5937,42.70576 -1.961,20.76012 15.7129,23.6544 6.1138,40.79358 z"
       inkscape:transform-center-x="-1.7501418"
       inkscape:transform-center-y="0.96833164"
       transform="matrix(1,0,0,0.51031708,3.0238095,123.22376)" />
    <path
       sodipodi:type="star"
       style="fill:#d5f6ff;stroke:none;stroke-width:0.26458332"
       id="path4634"
       sodipodi:sides="8"
       sodipodi:cx="1034.1428"
       sodipodi:cy="102.0238"
       sodipodi:r1="103.34176"
       sodipodi:r2="93.007584"
       sodipodi:arg1="0.35877067"
       sodipodi:arg2="0.75146975"
       inkscape:flatsided="false"
       inkscape:rounded="0.5"
       inkscape:randomized="0.1"
       d="m 1124.7791,131.43812 c -8.8703,17.68964 -1.8356,14.86749 -16.7125,27.95602 -14.877,13.08853 -13.1472,24.88975 -30.134,33.14005 -16.9868,8.2503 -21.5286,1.1233 -41.2925,2.91253 -19.7639,1.78923 -17.7588,6.18249 -36.80801,2.00842 -19.04923,-4.17407 -9.53198,-17.18015 -22.95693,-31.78069 -13.42496,-14.60054 -26.98614,-2.99134 -33.22961,-22.51289 -6.24346,-19.52155 -0.46418,-26.43059 -1.14054,-46.122446 -0.67635,-19.691857 -8.62269,-9.263465 -1.57653,-28.310702 7.04615,-19.047237 13.27526,-11.154495 24.88186,-28.119553 11.60659,-16.965059 4.58888,-32.0376886 20.82953,-42.013267 16.24063,-9.975578 32.75383,16.264825 51.71153,17.788938 18.9576,1.524112 17.1013,-18.1028121 35.6938,-11.5481714 18.5924,6.5546404 -1.8562,27.5691744 13.6518,38.9988254 15.5079,11.429651 26.6855,3.082463 35.458,20.92404 8.7725,17.841577 -1.3732,10.811567 1.1622,29.528093 2.5353,18.716523 9.3323,19.461173 0.4619,37.150803 z"
       inkscape:transform-center-x="0.59038418"
       inkscape:transform-center-y="-1.2584971"
       transform="matrix(1,0,0,0.51031708,-6.047619,56.699954)" />
  </g>
  <g
     inkscape:groupmode="layer"
     id="layer2"
     inkscape:label="montañas"
     style="display:inline">
    <path
       style="display:inline;fill:url(#linearGradient4610);fill-opacity:1;stroke:none;stroke-width:0.22915144px;stroke-linecap:butt;stroke-linejoin:miter;stroke-opacity:1"
       d="M 18.232877,370.9525 163.92838,247.83001 344.63066,226.87903 499.14423,268.781 l 132.61626,127.11001 227.2478,-45.7885 290.69501,-78.56621 117.4708,-96.87192 241.3149,-39.30952 109.9927,70.7096 261.8874,151.89466 171.658,20.49631 4.1631,107.59218 H -3.0238097 Z"
       id="path4579"
       inkscape:connector-curvature="0"
       sodipodi:nodetypes="ccccccccccccccc" />
  </g>
  <g
     inkscape:label="árboles"
     inkscape:groupmode="layer"
     id="layer1"
     transform="translate(0,183)"
     style="display:inline">
    <rect
       style="fill:#784421;stroke:none;stroke-width:0.23685077"
       id="rect4564"
       width="24.588459"
       height="90.589073"
       x="163.56381"
       y="206.95497" />
    <path
       sodipodi:type="star"
       style="fill:#00ff00;stroke:none;stroke-width:0.18606035"
       id="path4548"
       sodipodi:sides="8"
       sodipodi:cx="219.01962"
       sodipodi:cy="144.04294"
       sodipodi:r1="65.181313"
       sodipodi:r2="58.663174"
       sodipodi:arg1="0.91261438"
       sodipodi:arg2="1.3053135"
       inkscape:flatsided="false"
       inkscape:rounded="0.5"
       inkscape:randomized="0.1"
       d="m 261.91919,194.44963 c -10.86983,6.18824 -10.13867,4.68344 -22.19487,7.35565 -12.05621,2.67221 -12.84716,12.81298 -24.65579,11.20954 -11.80863,-1.60344 -9.57823,-10.53398 -20.30753,-15.74814 -10.7293,-5.21416 -16.04612,-7.75343 -25.48234,-16.65845 -9.43623,-8.90502 -7.64362,-12.37614 -9.29787,-25.10816 -1.65425,-12.73203 -4.99742,-13.06958 -4.21536,-25.5136 0.78207,-12.44402 4.26034,-4.69623 11.14606,-15.56887 6.88572,-10.87262 -0.72175,-17.167948 8.28799,-25.70223 9.00975,-8.534283 12.12611,3.168739 24.84287,0.995709 12.71676,-2.173029 15.2373,-6.684314 27.16046,-6.627778 11.92317,0.05654 5.75689,6.589215 17.78965,11.483638 12.03275,4.894423 16.48019,-4.332487 25.49576,4.748367 9.01557,9.080854 2.38053,17.050314 6.64967,28.349634 4.26915,11.29931 12.4469,16.18628 12.719,28.18604 0.2721,11.99975 -20.30726,11.00634 -24.87189,22.27081 -4.56463,11.26446 7.80402,10.13961 -3.06581,16.32784 z"
       transform="translate(-33.993752,24.63982)"
       inkscape:transform-center-x="-3.7050254"
       inkscape:transform-center-y="4.8340288" />
    <use
       x="0"
       y="0"
       xlink:href="#rect4564"
       id="use4566"
       transform="matrix(1,0,0,1.1571428,245.6419,-47.215178)"
       width="100%"
       height="100%" />
    <path
       sodipodi:type="star"
       style="fill:#00ff00;stroke:none;stroke-width:0.22647265"
       id="path4550"
       sodipodi:sides="8"
       sodipodi:cx="345.90314"
       sodipodi:cy="240.65431"
       sodipodi:r1="50.620152"
       sodipodi:r2="45.558136"
       sodipodi:arg1="0.86217005"
       sodipodi:arg2="1.2548691"
       inkscape:flatsided="false"
       inkscape:rounded="0.5"
       inkscape:randomized="0.1"
       d="m 376.35249,274.5843 c -8.02978,5.01506 -2.84585,9.82879 -11.67228,12.97982 -8.82643,3.15103 -9.52895,5.49078 -18.70711,3.96217 -9.17817,-1.5286 -12.69597,-1.10726 -20.72533,-5.89782 -8.02936,-4.79056 -10.3219,-4.62049 -15.80245,-12.97916 -5.48056,-8.35867 -5.69868,-12.41879 -7.69565,-21.49243 -1.99697,-9.07364 -5.66377,-0.25344 -3.81543,-10.2212 1.84834,-9.96775 3.73107,-11.87294 9.09699,-19.93942 5.36593,-8.06649 -5.78859,-17.034 2.29414,-22.22207 8.08272,-5.18806 16.54488,0.15174 25.80832,-2.0613 9.26343,-2.21304 4.93477,-4.39227 14.6951,-4.75667 9.76033,-0.3644 11.11639,1.31094 19.63377,6.6761 8.51738,5.36516 9.01578,2.71683 14.29179,11.16633 5.276,8.4495 6.30277,2.95266 10.30813,12.15657 4.00535,9.20392 -2.06709,11.66014 -2.30685,21.38611 -0.23976,9.72596 -1.8804,12.50071 -5.04158,21.66227 -3.16119,9.16157 -2.33178,4.56563 -10.36156,9.5807 z"
       transform="translate(79.553139,-85.799149)"
       inkscape:transform-center-x="2.3047749"
       inkscape:transform-center-y="-1.7126226" />
    <use
       height="100%"
       width="100%"
       transform="matrix(1,0,0,1.1571428,546.39062,-45.921049)"
       id="use4568"
       xlink:href="#rect4564"
       y="0"
       x="0" />
    <path
       sodipodi:type="star"
       style="fill:#00ff00;stroke:none;stroke-width:0.22647265"
       id="path4554"
       sodipodi:sides="8"
       sodipodi:cx="646.05194"
       sodipodi:cy="277.25781"
       sodipodi:r1="55.662609"
       sodipodi:r2="50.096352"
       sodipodi:arg1="0.47835243"
       sodipodi:arg2="0.87105151"
       inkscape:flatsided="false"
       inkscape:rounded="0.5"
       inkscape:randomized="0.1"
       d="m 693.16777,303.04279 c -6.17392,9.26348 -3.15435,5.14356 -10.40634,13.04558 -7.25199,7.90202 -7.31313,11.74494 -17.31675,15.44289 -10.00361,3.69794 -7.38496,-5.07852 -18.53068,-6.06442 -11.14572,-0.98589 -12.31846,9.66362 -22.80471,5.91418 -10.48626,-3.74944 -10.01326,-11.37477 -16.94855,-19.9934 -6.9353,-8.61863 -12.92977,-11.02 -15.03902,-21.73964 -2.10925,-10.71963 7.90727,-10.68011 9.45404,-21.63129 1.54677,-10.95117 -8.03386,-5.07523 -3.64506,-14.7341 4.3888,-9.65888 2.90112,-11.43782 11.01794,-18.07802 8.11683,-6.64021 6.60472,-6.33855 17.12197,-9.52707 10.51725,-3.18852 18.48651,7.3608 29.67466,7.02614 11.18816,-0.33467 9.68418,-10.10671 18.9453,-3.90293 9.26111,6.20377 4.93474,12.1009 12.53688,19.11976 7.60214,7.01885 14.64491,4.703 17.18939,15.4815 2.54448,10.7785 -3.81357,11.16936 -3.93348,21.61345 -0.1199,10.4441 -1.14167,8.76389 -7.31559,18.02737 z"
       transform="translate(74.779555,-113.25178)"
       inkscape:transform-center-x="-1.3409861"
       inkscape:transform-center-y="0.81473007" />
    <use
       x="0"
       y="0"
       xlink:href="#use4568"
       id="use4570"
       transform="translate(276.9938,3.0238095)"
       width="100%"
       height="100%" />
    <path
       sodipodi:type="star"
       style="fill:#00ff00;stroke:none;stroke-width:0.22647265"
       id="path4556"
       sodipodi:sides="8"
       sodipodi:cx="955.35162"
       sodipodi:cy="226.01292"
       sodipodi:r1="66.619385"
       sodipodi:r2="59.957455"
       sodipodi:arg1="0.36520145"
       sodipodi:arg2="0.75790053"
       inkscape:flatsided="false"
       inkscape:rounded="0.5"
       inkscape:randomized="0.1"
       d="m 1021.7362,243.47817 c -2.9719,12.06321 -21.0772,9.37491 -29.15252,19.82465 -8.07536,10.44974 -3.6387,22.04477 -15.92835,26.24072 -12.28964,4.19595 -2.53632,3.15309 -14.76477,1.65789 -12.22845,-1.4952 -18.34524,6.59056 -30.69033,2.19634 -12.34509,-4.39421 -1.67467,-7.75803 -10.48813,-17.7997 -8.81346,-10.04168 -18.61741,-12.53598 -24.78812,-23.88595 -6.17072,-11.34997 0.63887,-11.81533 -1.53148,-24.13974 -2.17035,-12.32441 -7.80117,-9.96055 -4.00008,-21.60802 3.8011,-11.64747 13.66326,-9.39861 22.54547,-18.32802 8.88221,-8.92941 0.88898,-18.83578 13.20821,-22.60348 12.31924,-3.7677 12.69633,5.05286 25.515,5.83212 12.81867,0.77925 21.1947,-12.83121 32.3398,-7.92909 11.14509,4.90212 8.68538,7.77492 18.0331,15.69684 9.3476,7.92192 13.6586,16.24566 20.1555,26.61735 6.4968,10.37169 -14.1505,8.02722 -11.9981,20.19822 2.1524,12.17099 14.5167,5.96666 11.5448,18.02987 z"
       transform="translate(43.348777,-82.775339)"
       inkscape:transform-center-x="-1.7010793"
       inkscape:transform-center-y="0.60422756" />
    <use
       x="0"
       y="0"
       xlink:href="#use4570"
       id="use4572"
       transform="translate(372.84704,-0.43555062)"
       width="100%"
       height="100%" />
    <path
       sodipodi:type="star"
       style="fill:#00ff00;stroke:none;stroke-width:0.22647265"
       id="path4558"
       sodipodi:sides="8"
       sodipodi:cx="1158.5011"
       sodipodi:cy="258.95605"
       sodipodi:r1="61.385948"
       sodipodi:r2="55.247353"
       sodipodi:arg1="0.46364761"
       sodipodi:arg2="0.85634669"
       inkscape:flatsided="false"
       inkscape:rounded="0.5"
       inkscape:randomized="0.1"
       d="m 1219.4793,288.17794 c -6.5861,9.56038 -14.0493,8.62234 -24.3625,15.09458 -10.3131,6.47224 -9.9227,4.54745 -20.3874,8.57965 -10.4647,4.0322 -13.4237,4.87545 -25.161,5.03384 -11.7374,0.1584 -5.6226,-0.40967 -15.2497,-6.28303 -9.6271,-5.87335 -6.2979,-2.65051 -14.454,-10.41931 -8.1561,-7.7688 -20.5361,-15.68591 -24.7438,-27.28478 -4.2078,-11.59886 2.9936,-1.26921 3.2031,-13.02105 0.2095,-11.75184 2.7912,-12.95378 7.0172,-24.5288 4.2261,-11.57503 13.5347,-7.5793 21.2068,-16.34917 7.6722,-8.76987 -4.0372,-12.32378 7.4484,-14.24635 11.4856,-1.92256 12.8773,-4.43266 25.1611,-5.03384 12.2837,-0.60118 16.6331,-3.06525 28.2013,0.73314 11.5682,3.79839 5.7337,17.60673 13.7793,26.887 8.0456,9.28027 7.0489,5.35633 12.4793,16.06819 5.4305,10.71187 2.6471,8.8139 0.6144,19.94234 -2.0327,11.12843 11.8336,15.2672 5.2475,24.82759 z"
       transform="translate(210.85098,-113.25178)"
       inkscape:transform-center-x="0.76641485"
       inkscape:transform-center-y="-2.4753929" />
    <use
       x="0"
       y="0"
       xlink:href="#use4572"
       id="use4574"
       transform="translate(245.8846,-2.5882589)"
       width="100%"
       height="100%" />
    <path
       sodipodi:type="star"
       style="fill:#00ff00;stroke:none;stroke-width:0.22647265"
       id="path4560"
       sodipodi:sides="8"
       sodipodi:cx="1465.9705"
       sodipodi:cy="200.39046"
       sodipodi:r1="68.086464"
       sodipodi:r2="61.277817"
       sodipodi:arg1="0.63274884"
       sodipodi:arg2="1.0254479"
       inkscape:flatsided="false"
       inkscape:rounded="0.5"
       inkscape:randomized="0.1"
       d="m 1514.3403,243.5005 c -8.5031,9.77292 -0.083,2.7534 -10.0957,10.21466 -10.0129,7.46126 -14.8565,19.14719 -28.1259,19.88375 -13.2693,0.73657 -8.7346,-8.06716 -21.176,-10.69531 -12.4414,-2.62815 -11.4773,-1.7908 -23.5596,-8.12117 -12.0823,-6.33037 -13.2836,-15.43343 -20.8094,-26.49372 -7.5258,-11.06029 -5.0865,-7.17875 -8.1889,-20.05978 -3.1025,-12.88103 1.9571,-9.09919 3.6475,-21.66117 1.6905,-12.56198 1.2492,-16.66771 7.4048,-27.99305 6.1556,-11.32535 7.2111,-10.8995 19.2164,-16.16711 12.0053,-5.26761 15.5002,-1.29539 28.1399,-5.09009 12.6397,-3.7947 9.0391,-5.7651 21.176,-2.92198 12.1369,2.84313 8.3941,-1.55856 20.0593,5.22187 11.6652,6.78043 3.8555,25.26181 11.4265,35.67826 7.571,10.41646 20.1053,7.63957 20.3381,21.1066 0.2328,13.46702 -1.534,7.50432 -3.6616,20.48479 -2.1277,12.98047 -7.2884,16.84053 -15.7914,26.61345 z"
       transform="translate(144.96467,-67.497388)"
       inkscape:transform-center-x="1.8859694"
       inkscape:transform-center-y="0.48875312" />
    <use
       x="0"
       y="0"
       xlink:href="#use4574"
       id="use4576"
       transform="translate(244.39638,2.8470846)"
       width="100%"
       height="100%" />
    <path
       sodipodi:type="star"
       style="fill:#00ff00;stroke:none;stroke-width:0.22647265"
       id="path4562"
       sodipodi:sides="8"
       sodipodi:cx="1652.6484"
       sodipodi:cy="273.59747"
       sodipodi:r1="44.680279"
       sodipodi:r2="40.21225"
       sodipodi:arg1="0.61072596"
       sodipodi:arg2="1.003425"
       inkscape:flatsided="false"
       inkscape:rounded="0.5"
       inkscape:randomized="0.1"
       d="m 1693.5439,302.44833 c -5.1467,6.9656 -9.0307,1.83382 -16.1264,7.19086 -7.0957,5.35704 -4.8121,8.55036 -13.242,10.62852 -8.4299,2.07815 -8.5815,-7.41478 -16.6742,-8.32019 -8.0927,-0.90541 -14.0774,4.70155 -21.2413,-0.0567 -7.164,-4.75828 -6.2541,-11.61588 -10.7639,-19.17503 -4.5099,-7.55916 -8.3288,-1.52135 -10.7603,-9.38067 -2.4315,-7.85931 11.2168,-6.87547 11.8402,-15.13916 0.6234,-8.2637 -4.2482,-9.80652 0.3309,-17.25196 4.5791,-7.44543 11.1379,-6.49712 17.9414,-11.3917 6.8034,-4.89458 4.3019,-9.29668 13.2421,-9.63907 8.9403,-0.3424 8.5492,5.77608 16.6741,7.33074 8.1248,1.55466 5.4843,-5.68778 12.3051,-0.93271 6.8208,4.75507 7.9951,4.68632 12.972,11.31902 4.9769,6.63271 4.2329,12.98297 6.7372,21.43751 2.5042,8.45455 0.9171,3.16979 -1.089,11.92777 -2.0062,8.75799 3.0007,14.48719 -2.1459,21.4528 z"
       transform="translate(210.85098,-113.25178)"
       inkscape:transform-center-x="-0.39509246"
       inkscape:transform-center-y="4.4546332" />
  </g>
</svg>
